<?xml version="1.0" standalone="no"?>
<!DOCTYPE svg PUBLIC "-//W3C//DTD SVG 20010904//EN"
 "http://www.w3.org/TR/2001/REC-SVG-20010904/DTD/svg10.dtd">
<svg version="1.0" xmlns="http://www.w3.org/2000/svg"
 width="659.000000pt" height="659.000000pt" viewBox="0 0 659.000000 659.000000"
 preserveAspectRatio="xMidYMid meet">
<metadata>
Created by potrace 1.11, written by Peter Selinger 2001-2013
</metadata>
<g transform="translate(0.000000,659.000000) scale(0.100000,-0.100000)"
fill="#000000" stroke="none">
<path d="M1963 4288 c-4 -7 -10 -312 -13 -678 -5 -656 -5 -666 -26 -705 -42
-78 -99 -108 -200 -108 -140 1 -205 63 -220 209 l-7 64 -168 0 c-114 0 -170
-4 -175 -11 -4 -7 -6 -41 -5 -78 8 -303 229 -491 576 -491 168 0 282 36 394
122 87 69 139 145 177 263 18 57 19 97 19 740 l0 680 -172 3 c-130 2 -174 -1
-180 -10z"/>
<path d="M2605 4289 c-3 -8 -4 -410 -3 -894 l3 -880 177 -3 178 -2 2 352 3
353 188 3 c217 3 273 -8 325 -61 57 -59 65 -93 72 -302 8 -204 22 -269 71
-321 22 -23 27 -24 196 -24 158 0 173 2 174 18 0 9 2 25 4 34 2 10 -9 35 -24
55 -46 63 -53 98 -61 293 -8 187 -16 232 -52 305 -32 62 -59 94 -112 133 l-49
36 34 25 c88 66 146 156 168 259 15 71 14 118 -4 210 -43 212 -180 341 -424
398 -94 22 -858 33 -866 13z m773 -313 c109 -29 165 -104 165 -221 0 -85 -17
-128 -65 -169 -55 -48 -105 -56 -328 -56 l-190 0 0 223 c0 123 3 227 7 230 13
14 356 7 411 -7z"/>
<path d="M3946 4291 c-3 -5 41 -96 98 -203 57 -106 192 -359 300 -562 l196
-368 2 -322 3 -321 178 -3 177 -2 0 311 0 312 61 116 c34 64 74 139 89 166 15
28 43 79 62 115 322 602 398 748 398 758 0 10 -46 12 -197 10 l-198 -3 -189
-382 c-105 -211 -194 -383 -198 -383 -5 0 -92 167 -193 371 -101 204 -189 377
-196 385 -9 11 -50 14 -200 14 -103 0 -190 -4 -193 -9z"/>
</g>
</svg>
